# xmcd
#
# Track frame offsets: 
#        150
#        19684
#        37252
#        58139
#        76831
#        93869
#        117889
#        134407
#        149910
#        180314
#        198518
#        226364
#        240105
#        257448
#
# Disc length: 3884 seconds
#
# Revision: 1
# Processed by: cddbd v1.5.2PL0 Copyright (c) Steve Scherf et al.
# Submitted via: ExactAudioCopy v1.0b3
#
DISCID=b80f2a0e
DTITLE=Funky B and the Kings of Shuffle - funky with a capital B
DYEAR=2013
DGENRE=Blues
TTITLE0=Compared to what
TTITLE1=It's your own fault
TTITLE2=Black cat bone
TTITLE3=Bee's delight
TTITLE4=Beat king
TTITLE5=Sometimes
TTITLE6=Not my style
TTITLE7=Snatch the mole!
TTITLE8=Seasons change anyway
TTITLE9=So tired
TTITLE10=Wait a minute
TTITLE11=Diverse
TTITLE12=Rock to the rhythm
TTITLE13=Cold cold feeling
EXTD=
EXTT0=
EXTT1=
EXTT2=
EXTT3=
EXTT4=
EXTT5=
EXTT6=
EXTT7=
EXTT8=
EXTT9=
EXTT10=
EXTT11=
EXTT12=
EXTT13=
PLAYORDER=
